<?xml version="1.0" encoding="UTF-8"?>
<!DOCTYPE svg PUBLIC "-//W3C//DTD SVG 1.1//EN" "http://www.w3.org/Graphics/SVG/1.1/DTD/svg11.dtd">
<!-- Creator: CorelDRAW -->
<svg xmlns="http://www.w3.org/2000/svg" xml:space="preserve" width="6.82666in" height="6.82666in" style="shape-rendering:geometricPrecision; text-rendering:geometricPrecision; image-rendering:optimizeQuality; fill-rule:evenodd; clip-rule:evenodd"
viewBox="0 0 6.82666 6.82666"
 xmlns:xlink="http://www.w3.org/1999/xlink">
 <defs>
  <style type="text/css">
   <![CDATA[
    .fil19 {fill:none}
    .fil1 {fill:#202020}
    .fil8 {fill:#2D2D2D}
    .fil12 {fill:#2F2F2F}
    .fil18 {fill:#444444}
    .fil15 {fill:#515151}
    .fil11 {fill:#5E5E5E}
    .fil5 {fill:#777777}
    .fil13 {fill:#787878}
    .fil14 {fill:#939393}
    .fil7 {fill:#B4B4B5}
    .fil16 {fill:#BCBCBC}
    .fil3 {fill:#C9C9C9}
    .fil10 {fill:#D1D1D1}
    .fil4 {fill:#DADADA}
    .fil17 {fill:#EDEDEE}
    .fil9 {fill:#FBFBFC}
    .fil6 {fill:#2D2D2D;fill-rule:nonzero}
    .fil0 {fill:#C9C9C9;fill-rule:nonzero}
    .fil2 {fill:white;fill-rule:nonzero}
   ]]>
  </style>
 </defs>
 <g id="Layer_x0020_1">
  <metadata id="CorelCorpID_0Corel-Layer"/>
  <path class="fil0" d="M2.20841 4.20988l-0.251874 0c-0.0282165,0 -0.0510945,0.0282008 -0.0510945,0.0629843l0 0.961673c0,0.0600748 0.0199055,0.11465 0.0519646,0.154169 0.032063,0.0395197 0.0763346,0.0640551 0.125071,0.0640551l0 0c0.0487323,0 0.0930039,-0.0245354 0.125063,-0.0640551 0.032063,-0.0395197 0.0519685,-0.0940945 0.0519685,-0.154169l0 -0.961673c0,-0.0347835 -0.022878,-0.0629843 -0.0510984,-0.0629843z"/>
  <path class="fil0" d="M1.58074 4.17616l-0.251878 0c-0.0282165,0 -0.0510945,0.0282008 -0.0510945,0.0629843l0 0.995398c0,0.0600748 0.0199055,0.11465 0.0519685,0.154169 0.0320591,0.0395197 0.0763307,0.0640551 0.125067,0.0640551l0 0c0.0487323,0 0.0930039,-0.0245354 0.125067,-0.0640551 0.0320591,-0.0395197 0.0519646,-0.0940945 0.0519646,-0.154169l0 -0.995398c0,-0.0347835 -0.022878,-0.0629843 -0.0510945,-0.0629843z"/>
  <path class="fil1" d="M1.58773 5.3637c-0.00177165,0.100713 -0.00354331,0.201421 -0.00531496,0.302134 0,0 -0.381421,0.0963425 -0.37878,-0.0369567 0,0 0.079185,-0.245476 0.105583,-0.286394 0,0 0.133295,-0.0884252 0.278512,0.0212165z"/>
  <path class="fil2" d="M1.29531 5.45672c0.00104724,-0.00258268 0.00399213,-0.00382283 0.0065748,-0.00277165 0.00257874,0.00104331 0.00381496,0.00398819 0.00277165,0.00657087 -0.000165354,0.000397638 -0.0574449,0.139193 0.00250787,0.163661 0.00259055,0.00105118 0.00383858,0.00400394 0.0027874,0.00659449 -0.00104724,0.00259055 -0.004,0.00383465 -0.00659055,0.0027874 -0.0693898,-0.0283228 -0.00822835,-0.176421 -0.00805118,-0.176843z"/>
  <path class="fil1" d="M1.93634 5.36922c0.00177165,0.100713 0.00354331,0.201425 0.0053189,0.302138 0,0 0.381421,0.0963465 0.37878,-0.0369567 0,0 -0.079189,-0.24548 -0.105583,-0.28639 0,0 -0.133299,-0.0884291 -0.278516,0.0212087z"/>
  <path class="fil2" d="M2.22877 5.46224c-0.00104724,-0.0025748 -0.00399213,-0.0038189 -0.00657087,-0.00277165 -0.00258268,0.00105118 -0.00382283,0.00399606 -0.00277165,0.0065748 0.000161417,0.000397638 0.0574409,0.139189 -0.00250787,0.163661 -0.00259055,0.00104724 -0.00384252,0.004 -0.00279134,0.00659055 0.00105118,0.00259055 0.00400394,0.00383858 0.00659055,0.00279134 0.0693858,-0.0283189 0.00822441,-0.176421 0.00805118,-0.176846z"/>
  <path class="fil3" d="M1.07143 3.73012c-0.0545315,0 -0.0987402,0.078374 -0.0987402,0.175043 0,0.0966732 0.0442087,0.175039 0.0987402,0.175039 0.0545354,0 0.0987402,-0.0783661 0.0987402,-0.175039 0,-0.0966693 -0.0442047,-0.175043 -0.0987402,-0.175043z"/>
  <path class="fil4" d="M1.19294 3.7744c0.0125197,-0.023622 0.0167441,-0.0502835 0.0167441,-0.0767559l7.87402e-006 -1.0958c0,-0.0113189 0.00910236,-0.0204685 0.0204173,-0.0205197 0.0100551,-3.93701e-005 0.0184291,0.00711024 0.0202402,0.0166339l0 0.0771378 0.000366142 0 0 0.013748 0.00609449 1.44754c0.141272,-0.0571693 0.313331,-0.0926457 0.499972,-0.0975039l0 -0.190449 0.0406614 -0.000161417 0 8.26772e-005 0.000366142 0 0 0.00691732 0.000838583 0.183028 0.00230709 -1.5748e-005c0.173382,0 0.335531,0.0264213 0.473917,0.072315l-0.000287402 -0.377272c-3.93701e-006,-0.0089685 -0.00123622,-0.0178622 -0.00123622,-0.026622l0 -1.08483c0.0095748,-0.00747244 0.0295079,-0.0146969 0.0409134,-0.0139094 3.14961e-005,0.000259843 5.11811e-005,0.000496063 7.48031e-005,0.000708661l4.72441e-005 0.000507874 0 0.469614 5.11811e-005 0.071315c0.0577441,-0.0355118 0.124661,-0.0558268 0.196016,-0.0558268 0.0275787,0 0.0544843,0.00304331 0.0804685,0.0088189l0 -0.546539c0,-0.111126 -0.0405276,-0.210894 -0.125677,-0.283673 -0.0881299,-0.0753346 -0.207146,-0.110831 -0.321102,-0.119524l-0.0226063 -0.00172835 -0.0196378 0.0113543c-0.0994843,0.0575315 -0.221311,0.0870276 -0.335713,0.0866063 -0.109547,-0.000401575 -0.214945,-0.0262638 -0.314,-0.0707953l-0.0202756 0.00239764 -0.00628346 -0.0148583c-0.00562598,-0.00274803 -0.0112323,-0.00555512 -0.016811,-0.00842126l-0.0173071 -0.0088937 -0.019437 0.000870079c-0.112689,0.0050315 -0.224949,0.0447638 -0.309358,0.12089 -0.00588583,0.00530709 -0.0115669,0.010752 -0.0170669,0.0163189 -0.0990748,0.138232 -0.103965,0.287469 -0.103965,0.287469l-0.00852756 0.0548701 0 1.03915c0,0.0662283 0.019622,0.12726 0.0693976,0.157051 0.0593701,0.0355394 0.157079,0.0115984 0.19039,-0.0512402z"/>
  <path class="fil5" d="M2.27622 3.41187l-1.02245 0.000748031 -0.400441 1.16857c0.326717,0.182866 1.54667,0.192705 1.8983,0.00299606l-0.475406 -1.17231z"/>
  <path class="fil4" d="M2.37105 3.0305l-3.93701e-006 3.93701e-006c-0.0592559,0.0475315 -0.0688504,0.13489 -0.021315,0.194146l0.433705 0.540693c0.0475276,0.059252 0.134886,0.0688425 0.194146,0.0213071l0 0c0.0592559,-0.0475276 0.0688465,-0.134894 0.0213189,-0.194146l-0.433705 -0.540685c-0.0475315,-0.0592559 -0.134894,-0.0688504 -0.194146,-0.0213189z"/>
  <path class="fil6" d="M1.23277 2.25319c-0.0692795,-0.0880394 -0.0409134,-0.183681 -0.00909843,-0.290941 0.0171024,-0.0576535 0.035378,-0.119256 0.035378,-0.182894 0,-0.176079 0.129035,-0.483945 0.190606,-0.52928 0.0149606,-0.0110157 -0.00988189,0.220122 -0.00468504,0.213232 0.0130906,-0.0173465 0.0377717,-0.0207913 0.0551142,-0.00770079 0.0173465,0.0130945 0.0207953,0.0377717 0.00769685,0.0551181 -0.0119685,0.0158661 -0.0289803,0.0283976 -0.0491181,0.0432205 -0.0227992,0.0167913 -0.0508071,0.0374173 -0.0741102,0.068689 -0.00125591,0.0104567 -0.0021378,0.0212008 -0.00262992,0.0322283 -0.000311024,0.00199213 -0.000472441,0.00402362 -0.000472441,0.00609449 0,0.00709055 6.29921e-005,-0.00320866 0.000161417,0.00275591 -0.000106299,0.00407087 -0.000161417,0.0081811 -0.000161417,0.0123268 0,0.118378 0.0930709,0.227354 0.161917,0.324409 0.0655157,0.0923701 0.105039,0.177209 0.205366,0.177209 0.100331,0 0.130307,-0.101602 0.195827,-0.193965 0.0688465,-0.0970551 0.171461,-0.189276 0.171461,-0.307654 0,-0.0185709 -0.00105512,-0.0363622 -0.00309843,-0.0534016 -0.0233071,-0.0312756 -0.0513189,-0.0519016 -0.0741142,-0.0686929 -0.0201339,-0.0148228 -0.0371457,-0.0273543 -0.0491181,-0.0432205 -0.0130945,-0.0173465 -0.00964567,-0.0420236 0.00769685,-0.0551181 0.0173465,-0.0130906 0.0420236,-0.00964567 0.0551181,0.00770079 0.00519685,0.00688583 -0.0534803,-0.245547 -0.0385197,-0.234531 0.0615669,0.0453386 0.224437,0.3745 0.224437,0.550579 0,0.0636378 0.0182756,0.12524 0.035374,0.182894 0.031811,0.107232 0.0601693,0.202854 -0.00903937,0.29087 -0.0502953,-0.0510787 -0.10774,0.0125433 -0.167102,-0.0262087l0.000909449 -0.00158661 -0.0462047 -0.0260315c-0.0434252,-0.0244685 -0.107378,-0.0840118 -0.140583,-0.0474921 -0.0262008,0.0288189 -0.0464213,0.0124567 -0.0812362,0.0298622 -0.0255,0.0127441 -0.053122,0.0209961 -0.0818031,0.0209961 -0.0286811,0 -0.0562992,-0.00825197 -0.0817992,-0.0209961 -0.0325984,-0.0162913 -0.0624961,-0.0399016 -0.0886457,-0.0655354l-0.00849213 -0.00873622c-0.0345787,-0.0355748 -0.0142992,0.0663425 -0.0564331,0.0918976 -0.074685,0.0452953 -0.219181,-0.00829528 -0.280598,0.0539016z"/>
  <rect class="fil7" x="1.5802" y="1.94263" width="0.33815" height="0.629006"/>
  <path class="fil4" d="M0.933154 2.64595c0,0 0.0134134,-0.413201 0.449878,-0.505256l0.0455787 0.107689 0.115614 0.188858 0.219827 0.148157 0.180508 -0.224406 0.11102 -0.11261 0.0455748 -0.107689c0.436469,0.0920551 0.449882,0.505256 0.449882,0.505256l-0.808941 0.013315 -0.808941 -0.013315z"/>
  <path class="fil5" d="M1.22211 2.1969c0.0486614,-0.032685 0.278272,-0.0909252 0.373858,-0.105512 0.000185039,-3.14961e-005 -0.000429134,0.00153543 -0.000417323,0.00174016 0.000255906,0.00324016 -0.0184843,0.0333307 -0.0153504,0.0351772 0.0197717,0.011626 -0.0580827,0.106528 -0.0317165,0.171717 0.0519488,0.128409 0.180815,0.272957 0.19361,0.318323 0.0127913,-0.0453661 0.141665,-0.189909 0.193614,-0.318323 0.026374,-0.0651929 -0.022748,-0.155047 -0.00298031,-0.166673 0.0031378,-0.00184252 -0.0156024,-0.0319331 -0.0153504,-0.0351732 1.5748e-005,-0.000208661 -0.000602362,-0.00177559 -0.000417323,-0.00174409 0.0955984,0.0145945 0.296465,0.0677835 0.345126,0.100469l-0.424362 0.460791 -0.0956299 0.127594 -0.095622 -0.127594 -0.424362 -0.460791z"/>
  <path class="fil5" d="M2.26208 2.1969c-0.0486654,-0.032685 -0.249528,-0.085878 -0.345126,-0.100469 -0.000185039,-3.14961e-005 0.000437008,0.00153543 0.00042126,0.00174016 -0.000255906,0.00324409 0.0184843,0.0333346 0.0153465,0.0351772 -0.0197677,0.011622 0.0293543,0.10148 0.00297638,0.166673 -0.0519488,0.128413 -0.180815,0.272957 -0.193606,0.318323l0 0.0409213 0.095622 -0.0015748 0.424366 -0.460791z"/>
  <path class="fil3" d="M1.74191 1.12164c-0.211346,0 -0.382677,0.227787 -0.382677,0.50878 0,0.280996 0.171331,0.508783 0.382677,0.508783 0.211343,0 0.382677,-0.227787 0.382677,-0.508783 0,-0.280992 -0.171335,-0.50878 -0.382677,-0.50878z"/>
  <path class="fil8" d="M2.1293 1.57166c0.0399488,-0.599858 -0.814724,-0.599858 -0.774776,0 0.361602,-0.161736 0.413169,-0.161736 0.774776,0z"/>
  <polygon class="fil9" points="2.00835,2.48396 1.90683,2.39699 1.76872,2.6388 1.74209,2.6388 1.71547,2.6388 1.57736,2.39699 1.60009,2.37752 1.57346,2.09688 1.51133,2.15494 1.47583,2.48396 1.60009,2.37752 1.74209,2.54203 1.74209,2.54203 1.8841,2.37752 1.91072,2.09688 1.97285,2.15494 "/>
  <path class="fil10" d="M2.86678 3.76318c0,0 0.0243307,0.0503701 0.0787205,0.0814213 0,0 0.0585591,0.088689 0.0740236,0.074878 0,0 0.0270984,-0.0210787 -0.0147677,-0.0720394l-0.0301142 -0.0342441c0,0 0.00696063,-0.0230827 0.0403819,0.0101969l0.0177205 0.00576378 0.0051378 0.013374c0,0 -0.00239764,0.0217795 0.0108543,0.0398819 0,0 0.00248031,0.0203543 -0.00620472,0.0540866 0,0 -0.0469134,0.0409646 -0.00551969,0.0581339 0,0 0.00883071,-0.00322047 0.0209606,-0.03l0.0328937 -0.0765709 0.00899213 0.018878 0.0039685 0.0365472c0,0 0.0118583,0.0274803 0.0277323,0.012878l-0.000944882 -0.050811 -0.0104646 -0.0549488 -0.0268386 -0.0424331 -0.0140197 -0.0241457 -0.0148268 -0.00494882 -0.0110354 -0.0231102 -0.0700472 -0.0427835 -0.0452717 -0.0329921 -0.0919882 0.0410157 0.0206575 0.0419724z"/>
  <rect class="fil7" x="3.62545" y="3.66164" width="0.202818" height="0.28056"/>
  <ellipse class="fil7" cx="3.72686" cy="3.86007" rx="0.198906" ry="0.0792264"/>
  <circle class="fil3" cx="3.72517" cy="3.52812" r="0.207884"/>
  <path class="fil11" d="M3.72517 3.32023c0.109039,0 0.198461,0.0839528 0.207177,0.190744 -0.0236417,0.00411811 -0.0472953,-0.000464567 -0.0652087,-0.0234173 -0.0540866,-0.0692953 -0.125067,-0.0676063 -0.125067,-0.0676063 -0.130142,-0.00169291 -0.19552,0.0760945 -0.206193,0.0963386 -0.0106693,0.0202441 -0.0313819,0.0337323 -0.0137441,-0.0329764 0.0204921,-0.0932717 0.103606,-0.163083 0.203035,-0.163083z"/>
  <g id="_502943192">
   <path id="_502943336" class="fil12" d="M3.45581 5.62509l0.212961 -0.00168898 -0.00675197 -0.167319 -0.0760591 -0.0050748 -0.00170079 0.0642283c0,0 -0.162252,0.0135157 -0.128449,0.109854z"/>
   <path id="_502943048" class="fil7" d="M3.66542 5.54031l-0.00340157 -0.0842244 -0.0760512 -0.0050748 -0.00170472 0.0642283c0,0 0.0373228,0.0132913 0.0811575,0.0250709z"/>
  </g>
  <g id="_502942520">
   <path id="_502942112" class="fil12" d="M3.99449 5.62509l-0.212961 -0.00168898 0.00675197 -0.167319 0.0760551 -0.0050748 0.00170472 0.0642283c0,0 0.162252,0.0135157 0.128449,0.109854z"/>
   <path id="_502942592" class="fil7" d="M3.78489 5.54031l0.00340157 -0.0842244 0.0760512 -0.0050748 0.00170472 0.0642283c0,0 -0.0373228,0.0132913 -0.0811575,0.0250709z"/>
  </g>
  <polygon class="fil13" points="3.9547,4.83289 3.9057,5.45483 3.75359,5.46497 3.75359,4.92413 3.69642,4.92413 3.69642,5.46497 3.54431,5.45483 3.49531,4.83289 3.725,4.82629 "/>
  <path class="fil10" d="M4.22054 4.52209c0,0 0.00551969,0.0279724 0.0283504,0.0502835 0,0 0.0174724,0.0512756 0.026878,0.0464528 0,0 0.0160787,-0.00690945 0.00198425,-0.0374291l-0.0104488 -0.0207638c0,0 0.00640551,-0.0104882 0.0186063,0.0102244l0.008 0.00512205 0.000811024 0.00725591c0,0 -0.00398425,0.0104331 0.000224409,0.0210669 0,0 -0.00139764,0.0103583 -0.0100197,0.025878 0,0 -0.0284094,0.0141693 -0.0102008,0.0279646 0,0 0.00477165,-0.000452756 0.0142008,-0.0121024l0.0260709 -0.0335315 0.00200787 0.0104685 -0.00274409 0.0185354c0,0 0.00231496,0.0150787 0.0120197,0.00991732l0.00607087 -0.0251811 0.00190945 -0.0284488 -0.00777953 -0.0243819 -0.00380709 -0.0137126 -0.00667717 -0.00434646 -0.0024685 -0.0128189 -0.0290472 -0.0301142 -0.0180827 -0.0220945 -0.0506457 0.0083937 0.0047874 0.0233622z"/>
  <path class="fil14" d="M3.11335 3.90671l0.148728 0.189295c0,0 0.145346,-0.283937 0.3245,-0.294079 0,0 0.0236614,0.0946339 0.15211,0.0912638 0,0 0.114925,0.00337795 0.148732,-0.0845039 0,0 0.246756,0.0135157 0.290701,0.358303l0.121685 0.351547 -0.0878819 0.0337953 -0.172394 -0.436043 -0.0642205 0.0101417 -0.0206181 0.706461 -0.469858 0.0135236 -0.00304331 -0.750409 -0.243374 0.138591 -0.202811 -0.300843 0.0777441 -0.0270433z"/>
  <rect class="fil15" x="4.60499" y="3.73595" width="0.424053" height="1.66943"/>
  <rect class="fil15" x="5.22106" y="3.73595" width="0.424053" height="1.66943"/>
  <path class="fil11" d="M4.91943 1.96491l0.411248 0c0.208287,0 0.378689,0.0816535 0.378689,0.289925l0 1.50001 -1.16863 0 0 -1.50001c0,-0.208283 0.170402,-0.289925 0.378689,-0.289925z"/>
  <rect class="fil16" x="4.97863" y="1.71644" width="0.293184" height="0.374009"/>
  <g id="_502940528">
   <g>
    <path id="_502941464" class="fil16" d="M5.44022 1.61273c0,0 0.154917,-0.193031 0.0797638,-0.234996 0,0 -0.168496,0.0045748 -0.0797638,0.234996z"/>
    <path id="_502941272" class="fil16" d="M4.8099 1.61273c0,0 -0.154917,-0.193031 -0.0797638,-0.234996 0,0 0.1685,0.0045748 0.0797638,0.234996z"/>
   </g>
   <ellipse id="_502940864" class="fil10" cx="5.12505" cy="1.41611" rx="0.355027" ry="0.456112"/>
   <path id="_502941104" class="fil12" d="M4.7962 1.45599c0,0 0.0894134,-0.165673 0.102626,-0.218524 0,0 0.290689,0.31711 0.528524,0.0264252l0.0132126 0.224622c0,0 0.251047,-0.502094 -0.317114,-0.52852 0,0 -0.541732,0.0132126 -0.327248,0.495996z"/>
  </g>
  <polygon class="fil17" points="5.14167,2.18896 5.27633,3.03338 5.12506,3.25909 4.97377,3.03338 5.10843,2.18896 5.12506,2.18806 "/>
  <path class="fil18" d="M5.41781 1.97502c-0.0360197,-0.00574016 -0.0764173,-0.00941732 -0.118539,-0.0101142l-0.0274685 0 -0.146744 0.125539 -0.146748 -0.125539 -0.0274646 0c-0.042122,0.00069685 -0.0825236,0.00437402 -0.118543,0.0101142l0.164689 0.247035 0.128067 -0.131409 0.128067 0.131409 0.164685 -0.247035z"/>
  <polygon class="fil17" points="5.18078,2.14783 5.12506,2.09065 5.06933,2.14783 5.12506,2.20633 "/>
  <path class="fil10" d="M5.81697 3.36851c-0.0123661,0.00179528 0.125335,-0.0110906 0.125335,-0.0110906l0.0258858 0.210138c0,0 -0.021437,0.134016 -0.129425,0.100012 0,0 0.0200787,-0.0148465 0.0889567,-0.103268l-0.0153622 -0.0845591c0,0 -0.0547677,-0.0176496 -0.0388583,0.0725984 0,0 -0.0663189,-0.00361417 -0.0656929,-0.159996l0.00916142 -0.0238346z"/>
  <path class="fil11" d="M5.45598 1.97798c0,0 0.0993661,-0.0156929 0.19585,0.0216181 0.100661,0.0389331 0.19865,0.132232 0.199028,0.196638l0.105681 1.18011 -0.167929 0.0133976 -0.126382 -0.919961 -0.119083 0.0143976 -0.0871654 -0.506205z"/>
  <path class="fil10" d="M4.43313 3.36851c0.0123661,0.00179528 -0.125335,-0.0110906 -0.125335,-0.0110906l-0.0258858 0.210138c0,0 0.021437,0.134016 0.129429,0.100012 0,0 -0.0200827,-0.0148465 -0.0889606,-0.103268l0.0153622 -0.0845591c0,0 0.0547677,-0.0176496 0.0388583,0.0725984 0,0 0.0663189,-0.00361417 0.0656929,-0.159996l-0.00916142 -0.0238346z"/>
  <path class="fil11" d="M4.79412 1.97798c0,0 -0.0993622,-0.0156929 -0.19585,0.0216181 -0.100661,0.0389331 -0.19865,0.132232 -0.199028,0.196638l-0.105681 1.18011 0.167929 0.0133976 0.126386 -0.919961 0.119079 0.0143976 0.0871654 -0.506205z"/>
  <g id="_502939736">
   <path id="_502939784" class="fil1" d="M5.02557 5.25142c-0.00215748,0.122335 -0.00430709,0.244665 -0.00646457,0.367 0,0 -0.463307,0.117031 -0.460102,-0.0448898 0,0 0.0961929,-0.298181 0.128252,-0.347878 0,0 0.161917,-0.107413 0.338315,0.0257677z"/>
   <path id="_502939760" class="fil1" d="M5.22667 5.25142c0.00215748,0.122335 0.00430709,0.244665 0.00646457,0.367 0,0 0.463307,0.117031 0.460102,-0.0448898 0,0 -0.0961929,-0.298181 -0.128252,-0.347878 0,0 -0.161917,-0.107413 -0.338315,0.0257677z"/>
  </g>
 </g>
 <rect class="fil19" width="6.82666" height="6.82666"/>
</svg>
