<svg xmlns="http://www.w3.org/2000/svg" viewBox="0 0 512 512"><title>Artboard 118</title><g id="Report_Card" data-name="Report Card"><path d="M179.50322,21.33333H405.33333A42.66667,42.66667,0,0,1,448,64V448a42.66667,42.66667,0,0,1-42.66667,42.66667H106.66667A42.66667,42.66667,0,0,1,64,448V136.83656a21.33332,21.33332,0,0,1,6.24839-15.08495l94.16989-94.16989A21.33334,21.33334,0,0,1,179.50322,21.33333Z" style="fill:#ccd4ff"/><rect x="85.33333" y="149.33333" width="149.33333" height="64" rx="31.99997" ry="31.99997" style="fill:#a4b1ff"/><path d="M213.33333,51.50319v88.99362a30.16986,30.16986,0,0,1-30.16986,30.16986H94.16986A30.16986,30.16986,0,0,1,64,140.49681v-.00005a30.16985,30.16985,0,0,1,8.83655-21.33331l88.99357-88.99357a30.16985,30.16985,0,0,1,21.33331-8.83655h0A30.16986,30.16986,0,0,1,213.33333,51.50319Z" style="fill:#dfe5ff"/><path d="M384,341.33333H362.66667V320A21.33333,21.33333,0,0,0,320,320v21.33333H298.66667a21.33334,21.33334,0,1,0,0,42.66667H320v21.33333a21.33333,21.33333,0,1,0,42.66667,0V384H384a21.33334,21.33334,0,0,0,0-42.66667Z" style="fill:#435e88"/><path d="M275.29427,420.38542,221.8125,296.90885a32.4892,32.4892,0,0,0-59.625,0L108.70573,420.38542a19.08082,19.08082,0,1,0,34.13281,17.0664l13.444-32.11849h71.4349l13.444,32.11849a19.08082,19.08082,0,1,0,34.13281-17.0664ZM174.14062,362.66667,192,320l17.85938,42.66667Z" style="fill:#435e88"/><rect x="69.49034" y="80.91506" width="138.35265" height="30.16989" rx="15.08493" ry="15.08493" transform="translate(-27.26772 126.1699) rotate(-45)" style="fill:#eff2ff"/></g></svg>