<svg xmlns="http://www.w3.org/2000/svg" viewBox="0 0 340 340"><g id="Layer_3" data-name="Layer 3"><path d="M243.112,287.887l-17.355-75.754c-1.6-7.541-3.608-15.106-7.344-21.848A69.9,69.9,0,0,0,207,175.8a11.921,11.921,0,0,1-5.537-5.248c-5.525-4.939-10.019-8.167-10.019-8.167h-63.48a57.757,57.757,0,0,0-10.654,7.433c-1.736,2.669-3.541,4.746-5.514,5.351-7.287,7.977-14.286,19.806-14.286,35.815l-5.239,91.391a24.846,24.846,0,0,0,24.806,26.269l67.074-1.2c52.374-9.174,59.706-35.2,59.706-35.2A42.036,42.036,0,0,0,243.112,287.887Z" style="fill:#797996"/><path d="M243.41,305.528c.974-3.685.972-8.819.44-13.277-3.219,3.87-8.671,7.553-17.607,6.827-17.895-1.454-22.959-17.48-22.959-17.48l-43.871,3.707-23.578,25.1.479,17.9,47.832-.855C198.47,329.351,235.746,334.526,243.41,305.528Z" style="fill:#595975"/><path d="M124.654,223.892V213.539a7.134,7.134,0,0,1,7.135-7.134h66.89a7.119,7.119,0,0,1,7.119,7.119V220.1Z" style="fill:#595975"/><path d="M159.7,158.32,135.252,185.7a197.735,197.735,0,0,0,12.875,25.285h23.144A197.735,197.735,0,0,0,184.146,185.7Z" style="fill:#cbd5ea"/><path d="M145.465,206.405c.9,1.587,1.792,3.127,2.662,4.58h23.144c.87-1.453,1.763-2.993,2.662-4.58Z" style="fill:#a9b5c9"/><path d="M150.012,191.852l-1.432,14.553a67.132,67.132,0,0,0,22.238,0l-2-20.361a21.821,21.821,0,0,0-9.116-1.867C154.252,184.177,150.012,191.852,150.012,191.852Z" style="fill:#ff6d8d"/><path d="M171.268,210.983l-.45-4.578H148.58l-.45,4.578c2.771,4.629,5.335,8.538,7.342,11.47l8.732-.408C166.168,219.161,168.62,215.407,171.268,210.983Z" style="fill:#e5486e"/><path d="M168.815,186.044l-2.589-26.315H153.172l-3.16,32.123A37.964,37.964,0,0,1,168.815,186.044Z" style="fill:#e5486e"/><path d="M173.372,151.842H146.214l-18.255,10.544a124.139,124.139,0,0,0,7.3,23.311L159.7,169.2,184.14,185.7a124.136,124.136,0,0,0,7.3-23.311Z" style="fill:#fff"/><path d="M132.26,206.405c-5.977-12.612-11.373-26.514-14.952-36.583a64.651,64.651,0,0,0-5.511,5.354c3.605,9.9,8.631,22.6,14.159,34.262Z" style="fill:#fff"/><path d="M201.457,170.554a309.344,309.344,0,0,1-15.442,35.852,14.617,14.617,0,0,0,7.841,0,322.487,322.487,0,0,0,13.137-30.6C205.116,173.909,203.235,172.144,201.457,170.554Z" style="fill:#fff"/><path d="M179,218.775H138.6c-2.148-3.83-4.275-8.024-6.335-12.37h-.473a7.123,7.123,0,0,0-5.832,3.032c2.357,4.974,4.805,9.752,7.273,14.054l52.6-2.457c2.8-4.574,5.5-9.552,8.024-14.629h-7.841C183.777,210.73,181.425,214.926,179,218.775Z" style="fill:#e2e2e2"/><polygon points="146.214 142.245 146.214 151.842 159.699 169.203 173.184 151.842 173.184 143.284 146.214 142.245" style="fill:#ffd4ca"/><path d="M193.193,215.854h8.357A4.247,4.247,0,0,1,205.8,220.1v85.426H188.529Z" style="fill:#b45f6d"/><polygon points="126.978 295.308 109.62 295.308 127.959 249.665 126.978 295.308" style="fill:#595975"/><path d="M146.214,142.245c10.479,4.516,21.536,2.714,26.97,1.039V128.677h-26.97Z" style="fill:#f99c9c"/><path d="M124.654,283.325V223.892a8.039,8.039,0,0,1,8.039-8.038h60.5v67.471A214.133,214.133,0,0,1,124.654,283.325Z" style="fill:#e0898d"/><rect x="124.654" y="283.325" width="68.539" height="15.752" style="fill:#b45f6d"/><polygon points="119.554 295.308 182.961 295.308 182.961 328.645 117.072 328.645 119.554 295.308" style="fill:#797996"/><path d="M182.961,295.308h14.178A12.662,12.662,0,0,1,209.8,307.969v8.015a12.661,12.661,0,0,1-12.661,12.661H182.961C179.38,318.833,180.239,307.409,182.961,295.308Z" style="fill:#ffd4ca"/><path d="M200.963,34.262s4.148-13.185,20.444-13.185S247.776,35,247.776,54.407v93.778s-35.258,2.666-35.258-20.148V65.076Z" style="fill:#fea66a"/><path d="M128.862,116h7.421V86.111h-7.421a9.308,9.308,0,0,0-9.308,9.308v11.274A9.308,9.308,0,0,0,128.862,116Z" style="fill:#f99c9c"/><path d="M192.823,116H185.4V86.111h7.421a9.308,9.308,0,0,1,9.308,9.308v11.274A9.308,9.308,0,0,1,192.823,116Z" style="fill:#f99c9c"/><path d="M132.768,91.249v18.893a27.94,27.94,0,0,0,27.94,27.94h0a27.94,27.94,0,0,0,27.941-27.94V79.363L138.267,51.689S124.075,62.333,132.768,91.249Z" style="fill:#ffd4ca"/><path d="M141.842,60.68s.683,27.731,47.516,29.15c0,0,8.693.355,12.773,7.628,0,0,12.418-9.58,12.418-36.722s-18.272-45.592-41.866-48.962c0,0-34.77-5.677-40.8,24.836,0,0-17.74,2.129-18.095,26.61,0,0-.048,18.449,18.982,28.029C132.768,91.249,131.7,73.509,141.842,60.68Z" style="fill:#ffc676"/><path d="M152.288,105.745a3.5,3.5,0,0,1-3.5-3.5V99a3.5,3.5,0,1,1,7,0v3.247A3.5,3.5,0,0,1,152.288,105.745Z" style="fill:#f99c9c"/><path d="M169.435,105.745a3.5,3.5,0,0,1-3.5-3.5V99a3.5,3.5,0,1,1,7,0v3.247A3.5,3.5,0,0,1,169.435,105.745Z" style="fill:#f99c9c"/><path d="M160.193,125.413a3.5,3.5,0,0,1,0-7c4.358,0,5.816-1.646,6.24-2.354a3.5,3.5,0,0,1,6,3.6C171.4,121.391,168.128,125.413,160.193,125.413Z" style="fill:#f99c9c"/><path d="M117.072,332.145h80.067c16.689,0,24.047-1.656,25.118-1.922.51-.1,1.015-.218,1.509-.341a32,32,0,0,0,23.891-33.609c-.2-2.824-.567-5.84-1.094-8.966-.01-.067-.024-.135-.039-.2l-17.342-75.7a100.267,100.267,0,0,0-7.616-22.639c-4.591-9.543-9.721-16.346-15.246-20.22l-12.871-9.027c-.032-.023-.069-.035-.1-.057-.049-.032-.093-.07-.144-.1l-16.519-9.641V137.206a31.591,31.591,0,0,0,14.043-17.7h2.1a12.823,12.823,0,0,0,12.809-12.808V98.986a30.725,30.725,0,0,0,3.386-4.127v33.178a19.8,19.8,0,0,0,6.39,15.121c8.257,7.656,22.377,8.627,29.013,8.627,2.067,0,3.409-.094,3.619-.11a3.5,3.5,0,0,0,3.236-3.49V54.407c0-22.029-12-36.83-29.869-36.83-8.247,0-13.8,3.017-17.38,6.225A51.913,51.913,0,0,0,173.246,8.32a53.064,53.064,0,0,0-19.562,1.037c-13.026,3.3-21.541,11.71-24.744,24.383-5.549,1.724-18.343,8.025-18.654,29.471a35.972,35.972,0,0,0,9.748,22.937,12.814,12.814,0,0,0-3.98,9.271v11.274A12.822,12.822,0,0,0,128.862,119.5h1.829a31.56,31.56,0,0,0,12.023,16.4v13.921l-16.5,9.533c-.044.026-.082.059-.125.086s-.061.029-.089.049l-13.23,8.973c-.025.016-.043.038-.067.056s-.052.028-.077.046c-.759.573-18.572,14.336-18.616,42.318l-5.233,91.293a28.347,28.347,0,0,0,28.3,29.969Zm11.083-40.337V226.153a6.806,6.806,0,0,1,6.8-6.8h64.671a2.676,2.676,0,0,1,2.673,2.673v70.64a16.06,16.06,0,0,0-5.159-.859Zm17.575-92.182q-3.4-6.405-6.122-12.641l7.889-5.325Zm13.969-26.2,4.667,3.15,3.52,35.779H151.512l3.52-35.779Zm-9.985-22.783V139.594a31.379,31.379,0,0,0,19.97.676v10.372L159.7,163.5ZM171.9,181.66l7.89,5.324q-2.716,6.225-6.122,12.643Zm34.4,134.324a9.172,9.172,0,0,1-9.161,9.161H186.461V298.808h10.678a9.172,9.172,0,0,1,9.161,9.161ZM193.7,168.247l8.6,6.031c4.467,3.133,8.949,9.193,12.958,17.524a93.467,93.467,0,0,1,7.087,21.112l17.332,75.653c.479,2.871.814,5.63,1,8.2.878,12.348-12.789,29.61-29.944,27.924a16.045,16.045,0,0,0,2.569-8.708v-8.015a16.079,16.079,0,0,0-4-10.612v-75.33a9.684,9.684,0,0,0-9.673-9.673H174.92l-.056-.574a198.989,198.989,0,0,0,12.515-24.737c.01-.025.013-.051.023-.077A135.272,135.272,0,0,0,193.7,168.247Zm-6.208-4.112a118.834,118.834,0,0,1-4.993,16.232l-17.741-11.973,9.368-12.06Zm11.14-57.442c0,5.808-6.58,5.808-6.58,5.808.058-.78.1-1.565.1-2.359V93.919a11.935,11.935,0,0,1,6.483,4.55Zm22.775-82.116c13.893,0,22.869,11.709,22.869,29.83v90.37c-5.747-.017-17.719-.817-24.118-6.76a12.891,12.891,0,0,1-4.14-9.98v-49c0-.08-.018-.156-.023-.235a74.906,74.906,0,0,0,2.055-18.066,54.093,54.093,0,0,0-9.579-31.519C211.765,26.137,216.107,24.577,221.407,24.577ZM128.862,112.5a5.815,5.815,0,0,1-5.808-5.808V95.419a5.805,5.805,0,0,1,2.292-4.606,40.985,40.985,0,0,0,3.922,2.532v16.8c0,.794.04,1.579.1,2.359Zm.567-27.369a29.116,29.116,0,0,1-12.143-21.861c.3-20.935,14.439-23.108,15.012-23.186a3.5,3.5,0,0,0,3.017-2.8c5.293-26.781,35.524-22.263,36.872-22.049,23.246,3.32,38.863,21.6,38.863,45.5,0,17.405-5.4,27.066-8.654,31.305a20.923,20.923,0,0,0-12.931-5.71c-42.569-1.29-44.08-24.689-44.125-25.76A3.5,3.5,0,0,0,139.1,58.51C132.04,67.438,129.989,78.37,129.429,85.132Zm6.839,25.01V91.249c0-.024-.007-.047-.007-.071,0-.045,0-.089,0-.133a50.835,50.835,0,0,1,4.286-21.584c3.9,8.919,14.716,21.717,44.6,23.665v17.016a24.441,24.441,0,0,1-48.881,0Zm9.054,46.257,9.318,12L136.9,180.367a119.142,119.142,0,0,1-4.99-16.22ZM95.76,302.576,101,211.185c0-.067.006-.133.006-.2,0-24.031,14.685-35.938,15.778-36.79l8.895-6.033a135.139,135.139,0,0,0,6.319,18.8c.01.025.012.052.023.077a198.753,198.753,0,0,0,12.514,24.735l-.056.576h-9.524a13.814,13.814,0,0,0-13.8,13.8v65.655H109.62a3.5,3.5,0,0,0,0,7h69.841v26.337H117.072A21.347,21.347,0,0,1,95.76,302.576Z" style="fill:#3c3c4f"/></g></svg>